# xmcd
#
# Track frame offsets:
#	182
#	18107
#	26857
#	41482
#	62482
#	85132
#	106732
#	128332
#	153757
#	172882
#
# Disc length: 2510 seconds
#
# Revision: 1
# Processed by: cddbd v1.5.2PL0 Copyright (c) Steve Scherf et al.
# Submitted via: EasyCDDAExtractor 5.0.6
#
DISCID=6309cc0a
DTITLE=The Silverbacks - Silverbacks
DYEAR=1999
DGENRE=R&B
TTITLE0=Georgia Women
TTITLE1=Run Furry Run
TTITLE2=Somebody's Gonna Get Their Head Kicked In Tonight
TTITLE3=XXXX
TTITLE4=Elvis Is Still Dead
TTITLE5=Cedar House
TTITLE6=Jesus Gonna Be There
TTITLE7=Nukesie
TTITLE8=Kick 'Em Out
TTITLE9=If I Had My way
EXTD=
EXTT0=
EXTT1=
EXTT2=
EXTT3=
EXTT4=
EXTT5=
EXTT6=
EXTT7=
EXTT8=
EXTT9=
PLAYORDER=
